<svg xmlns="http://www.w3.org/2000/svg" viewBox="0 0 512 512">
  <rect width="512" height="512" rx="96" fill="#2a1410"/>
  <path d="M40 360C150 300 210 380 300 300S430 180 480 200" fill="none" stroke="#c99a3e" stroke-width="10" stroke-dasharray="34 12" stroke-linecap="round"/>
  <g transform="translate(96 150) scale(10)" fill="#c99a3e">
    <path d="M1.5 14.5L4 11h1V8.5h14V14.5z"/><rect x="6" y="3" width="3" height="5.6" rx=".6"/><rect x="5.2" y="2.2" width="4.6" height="1.6" rx=".6"/><circle cx="13" cy="8.2" r="1.8"/><path d="M19 3.5h9.5v11H19z"/><rect x="18" y="2.2" width="11.5" height="1.8" rx=".5"/><circle cx="7.5" cy="16.2" r="2.3"/><circle cx="14" cy="16.2" r="2.3"/><circle cx="24" cy="15.6" r="3"/>
    <rect x="21" y="5.5" width="5.5" height="3.6" rx=".6" fill="#f6efdd"/>
  </g>
  <circle cx="74" cy="352" r="22" fill="#f6efdd" stroke="#8e231c" stroke-width="8"/>
  <circle cx="452" cy="196" r="22" fill="#f6efdd" stroke="#8e231c" stroke-width="8"/>
</svg>
